<svg xmlns="http://www.w3.org/2000/svg" xmlns:xlink="http://www.w3.org/1999/xlink" width="1024" zoomAndPan="magnify" viewBox="0 0 768 767.999994" height="1024" preserveAspectRatio="xMidYMid meet" version="1.0"><defs><clipPath id="aabd3cd804"><path d="M 83.710938 76.800781 L 684.460938 76.800781 L 684.460938 691.050781 L 83.710938 691.050781 Z M 83.710938 76.800781 " clip-rule="nonzero"/></clipPath></defs><g clip-path="url(#aabd3cd804)"><path fill="#000000" d="M 321.789062 76.800781 C 190.519531 76.800781 83.800781 183.460938 83.800781 314.664062 C 83.800781 445.867188 190.519531 552.527344 321.789062 552.527344 C 373.761719 552.527344 421.734375 535.613281 460.910156 507.273438 L 644.976562 691.246094 L 684.570312 651.675781 L 502.195312 469.398438 C 537.988281 427.761719 559.777344 373.761719 559.777344 314.664062 C 559.777344 183.460938 453.0625 76.800781 321.789062 76.800781 Z M 321.789062 104.785156 C 437.929688 104.785156 531.78125 198.585938 531.78125 314.664062 C 531.78125 430.742188 437.929688 524.542969 321.789062 524.542969 C 205.648438 524.542969 111.800781 430.742188 111.800781 314.664062 C 111.800781 198.585938 205.648438 104.785156 321.789062 104.785156 Z M 321.789062 104.785156 " fill-opacity="1" fill-rule="nonzero"/></g></svg>